<svg width="317" height="400" viewBox="0 0 317 400" fill="none" xmlns="http://www.w3.org/2000/svg">
<path d="M212.011 253.144C209.365 250.646 205.196 250.764 202.697 253.411C191.093 265.699 175.399 272.466 158.505 272.466C142.273 272.466 127.013 266.146 115.537 254.668C112.963 252.096 108.792 252.096 106.22 254.668C103.647 257.241 103.647 261.413 106.22 263.985C120.186 277.952 138.755 285.643 158.506 285.643C179.062 285.643 198.159 277.409 212.277 262.457C214.776 259.813 214.657 255.642 212.011 253.144Z" fill="#E3E3E3"/>
<path d="M238.053 247.454C236.767 240.247 232.75 233.97 226.745 229.784V229.784C215.189 221.731 199.576 223.748 190.443 234.219C189.992 234.563 189.585 234.967 189.233 235.423C181.81 245.022 170.61 250.527 158.507 250.527C147.158 250.527 136.438 245.578 129.033 236.937C128.728 236.48 128.435 236.064 128.141 235.674C118.945 223.485 101.55 221.052 89.3603 230.245C83.4564 234.702 79.64 241.188 78.615 248.513C73.5509 284.701 130.833 305.659 158.508 305.666C186.334 305.676 244.62 284.261 238.053 247.454ZM221.593 262.167C206.155 281.456 183.241 292.491 158.507 292.491C134.196 292.491 111.675 281.465 95.9775 262.854C94.0408 260.558 91.1314 254.191 91.6619 250.351C91.6627 250.343 91.6642 250.335 91.665 250.327C92.2056 246.493 94.2041 243.098 97.2947 240.766C99.9072 238.795 102.974 237.844 106.019 237.844C115.433 237.844 120.311 247.869 126.975 252.971C136.015 259.891 147.102 263.702 158.506 263.702C170.789 263.702 182.824 259.318 192.174 251.343C199.95 244.712 207.411 232.371 219.209 240.592C222.328 242.767 224.413 246.025 225.082 249.767C225.749 253.511 224.215 259.546 221.593 262.167Z" fill="#E3E3E3"/>
<path d="M159.234 192.462C146.725 192.462 136.547 202.64 136.547 215.149C136.547 227.659 146.725 237.838 159.234 237.838C171.745 237.838 181.923 227.659 181.923 215.149C181.923 202.64 171.745 192.462 159.234 192.462ZM159.234 224.662C153.989 224.662 149.723 220.394 149.723 215.149C149.723 209.904 153.989 205.638 159.234 205.638C164.48 205.638 168.747 209.904 168.747 215.149C168.747 220.395 164.479 224.662 159.234 224.662Z" fill="#E3E3E3"/>
<path d="M106.845 141.917C95.5922 141.917 87.1055 155.911 87.1055 174.469C87.1055 193.026 95.593 207.021 106.845 207.021C118.098 207.021 126.585 193.026 126.585 174.469C126.585 155.912 118.098 141.917 106.845 141.917ZM106.845 193.846C105.211 193.846 100.282 186.974 100.282 174.47C100.282 161.966 105.212 155.095 106.845 155.095C108.479 155.095 113.409 161.966 113.409 174.47C113.409 186.974 108.48 193.846 106.845 193.846Z" fill="#E3E3E3"/>
<path d="M207.488 141.917C196.235 141.917 187.749 155.911 187.749 174.469C187.749 193.026 196.235 207.021 207.488 207.021C218.742 207.021 227.228 193.026 227.228 174.469C227.228 155.912 218.742 141.917 207.488 141.917ZM207.488 193.846C205.854 193.846 200.925 186.974 200.925 174.47C200.925 161.966 205.854 155.095 207.488 155.095C209.122 155.095 214.052 161.966 214.052 174.47C214.052 186.974 209.123 193.846 207.488 193.846Z" fill="#E3E3E3"/>
<path d="M281.726 205.127C280.683 185.274 274.943 166.646 265.599 150.334C268.126 143.82 269.413 137.084 269.413 130.259C269.413 110.52 258.877 92.057 239.631 77.8586V30.6937C240.827 27.8836 239.937 24.5266 237.331 22.7117C216.294 8.06562 188.138 0 158.05 0C127.963 0 99.8078 8.06562 78.7719 22.7102C76.168 24.5234 75.2773 27.8773 76.4695 30.6852V77.8594C57.2242 92.0586 46.6898 110.521 46.6898 130.26C46.6898 137.629 47.8609 143.942 50.4516 150.345C49.1445 152.634 47.9008 154.963 46.7375 157.34C45.1391 160.609 46.4922 164.554 49.7602 166.153C53.0289 167.751 56.9742 166.399 58.5734 163.13C67.5484 144.786 81.4156 129.277 98.6774 118.282C116.4 106.993 136.931 101.026 158.049 101.026C219.075 101.026 268.723 150.675 268.723 211.7C268.723 272.725 219.074 322.374 158.049 322.374C115.648 322.374 47.375 284.036 47.375 211.7C47.375 205.888 47.8289 200.052 48.725 194.355C49.2906 190.761 46.8344 187.389 43.2398 186.824C39.643 186.259 36.2734 188.715 35.7086 192.309C35.0438 196.539 34.618 200.838 34.3922 205.15C15.2961 205.927 0 221.698 0 240.981C0 260.759 16.0906 276.849 35.8695 276.849C41.1102 276.849 46.1664 275.735 50.8102 273.599C56.8328 283.993 64.3227 293.433 72.9938 301.638C62.8914 306.27 55.8531 316.471 55.8531 328.293C55.8531 336.405 59.2852 344.048 64.9641 349.491C59.2852 354.935 55.8531 362.577 55.8531 370.689C55.8531 386.851 69.0023 400 85.1641 400C90.6242 400 97.1055 398.547 102.077 396.208C111.177 391.926 133.536 377.928 142.703 372.125C146.984 374.955 152.109 376.608 157.613 376.608C163.491 376.608 168.935 374.721 173.383 371.53C181.54 376.737 199.768 388.299 208.259 393.09C214.601 396.668 222.848 400 230.23 400C246.392 400 259.541 386.851 259.541 370.689C259.541 362.577 256.109 354.934 250.431 349.491C256.109 344.047 259.541 336.405 259.541 328.293C259.541 316.656 252.725 306.584 242.876 301.854C251.73 293.519 259.365 283.903 265.469 273.298C270.29 275.634 275.576 276.849 281.062 276.849C300.84 276.849 316.93 260.759 316.93 240.981C316.929 221.424 301.197 205.485 281.726 205.127ZM89.6461 31.3086C108.111 19.5945 132.216 13.1766 158.05 13.1766C183.884 13.1766 207.989 19.5945 226.454 31.3078V69.5836C207.008 59.1672 183.147 53.4969 158.05 53.4969C132.953 53.4969 109.093 59.1672 89.6461 69.5836V31.3086ZM255.845 135.796C233.166 106.641 197.763 87.8492 158.05 87.8492C134.42 87.8492 111.441 94.5289 91.6 107.168C79.5024 114.873 68.8953 124.563 60.1906 135.773C59.9805 134.019 59.8664 132.203 59.8664 130.259C59.8664 113.782 69.7273 98.1039 87.6313 86.1117C106.348 73.5758 131.356 66.6727 158.05 66.6727C184.745 66.6727 209.753 73.5758 228.47 86.1117C246.374 98.1031 256.234 113.782 256.234 130.259C256.234 132.112 256.094 133.958 255.845 135.796ZM35.8695 263.673C23.3563 263.673 13.1766 253.493 13.1766 240.98C13.1766 228.968 22.5586 219.112 34.3797 218.342C35.1984 233.753 38.85 248.423 44.818 261.845C42.0195 263.048 38.9961 263.673 35.8695 263.673ZM133.685 362.234C123.816 368.456 104.259 380.618 96.4656 384.286C93.2391 385.805 88.6969 386.824 85.1641 386.824C76.2672 386.824 69.0297 379.586 69.0297 370.69C69.0297 364.073 73.1797 358.023 79.3555 355.637C81.8953 354.655 83.5695 352.213 83.5695 349.491C83.5695 346.768 81.8953 344.327 79.3555 343.346C73.1797 340.96 69.0297 334.911 69.0297 328.294C69.0297 319.397 76.268 312.159 85.1641 312.159C85.3336 312.159 85.5 312.146 85.6664 312.134C100.287 322.7 117.293 330.159 135.712 333.527C132.436 338.01 130.495 343.527 130.495 349.491C130.496 354.094 131.652 358.433 133.685 362.234ZM157.612 363.432C149.925 363.432 143.671 357.177 143.671 349.491C143.671 341.804 149.924 335.55 157.612 335.55C165.299 335.55 171.552 341.803 171.552 349.491C171.552 357.178 165.298 363.432 157.612 363.432ZM246.365 328.292C246.365 334.909 242.215 340.959 236.039 343.345C233.499 344.327 231.825 346.769 231.825 349.491C231.825 352.214 233.499 354.655 236.039 355.636C242.215 358.022 246.365 364.071 246.365 370.688C246.365 379.585 239.127 386.823 230.23 386.823C225.135 386.823 219.048 384.046 214.734 381.612C207.091 377.301 190.609 366.878 181.977 361.379C183.737 357.786 184.729 353.752 184.729 349.487C184.729 343.585 182.827 338.122 179.613 333.665C198.311 330.369 215.573 322.861 230.389 312.163C239.211 312.252 246.365 319.45 246.365 328.292ZM281.061 263.673C277.673 263.673 274.415 262.926 271.427 261.519C277.314 248.174 280.916 233.605 281.724 218.304C293.93 218.657 303.753 228.689 303.753 240.98C303.753 253.493 293.573 263.673 281.061 263.673Z" fill="#E3E3E3"/>
</svg>
