<svg width="280" height="280" viewBox="0 0 280 280" fill="none" xmlns="http://www.w3.org/2000/svg">
<g clip-path="url(#clip0_14_26)">
<path d="M246.471 187.436C247.81 184.809 249.906 180.69 251.997 176.554C254.016 172.559 255.621 169.361 256.765 167.049C257.421 165.721 257.965 164.608 258.339 163.817C259.105 162.202 259.827 160.676 258.828 158.73C258.193 157.495 257 156.638 255.627 156.433C235.635 153.446 227.105 139.59 227.105 110.103V87.1047C227.105 39.0752 188.03 0 140 0C91.97 0 52.8953 39.0752 52.8953 87.1047V110.103C52.8953 139.59 44.3654 153.446 24.3704 156.434C22.998 156.64 21.8061 157.496 21.1719 158.73C20.1715 160.676 20.8948 162.202 21.6601 163.817C22.0349 164.608 22.5783 165.721 23.2349 167.049C24.379 169.361 25.9831 172.559 28.0029 176.554C30.0934 180.689 32.1903 184.809 33.5287 187.436C25.5387 194.989 20.6982 205.652 20.6982 217.306V261.889C20.6982 271.875 28.8228 280 38.8091 280H241.191C251.177 280 259.302 271.875 259.302 261.889V217.306C259.302 205.652 254.461 194.989 246.471 187.436ZM31.2548 163.812C41.574 161.066 49.2927 155.248 54.2441 146.466C59.1398 137.782 61.5195 125.888 61.5195 110.103V87.1047C61.5195 43.8301 96.7259 8.62423 140 8.62423C183.274 8.62423 218.481 43.8301 218.481 87.1047V110.103C218.481 130.047 221.757 156.65 248.745 163.814C246.418 168.497 242.678 175.883 239.495 182.131C235.939 179.987 232.01 178.346 227.787 177.333L212.506 173.665C211.393 173.398 210.22 173.584 209.245 174.182C208.27 174.78 207.572 175.742 207.306 176.854C207.157 177.476 206.987 178.091 206.821 178.707L193.193 175.3C192.469 175.12 191.762 174.857 191.088 174.522L190.952 174.454C187.717 172.836 185.708 169.585 185.708 165.968V156.751C199.811 144.159 208.706 125.852 208.706 105.503V96.3033C208.706 96.2665 208.701 96.2309 208.7 96.1941C208.698 96.1084 208.694 96.0233 208.687 95.9371C208.682 95.8767 208.675 95.8175 208.667 95.7577C208.658 95.6784 208.645 95.5996 208.631 95.5208C208.619 95.4553 208.605 95.3903 208.59 95.3259C208.574 95.2558 208.556 95.1862 208.536 95.1166C208.516 95.0448 208.493 94.974 208.469 94.9033C208.448 94.8435 208.427 94.7837 208.403 94.7239C208.373 94.6463 208.34 94.5704 208.305 94.4945C208.281 94.4434 208.257 94.3922 208.231 94.3416C208.19 94.2611 208.145 94.1829 208.099 94.1059C208.082 94.0766 208.068 94.0461 208.05 94.0173L185.052 57.2206C183.813 55.2382 181.22 54.6046 179.206 55.7907C178.671 56.1081 124.97 87.3922 75.6058 87.3922C73.2243 87.3922 71.2937 89.3223 71.2937 91.7043V105.503C71.2937 125.852 80.1887 144.16 94.2916 156.752V165.969C94.2916 169.585 92.2822 172.836 89.0504 174.453L88.9084 174.523C88.2374 174.859 87.5308 175.12 86.8052 175.301L73.1789 178.708C73.0128 178.092 72.8426 177.476 72.6937 176.855C72.4275 175.742 71.73 174.781 70.7544 174.182C69.7792 173.584 68.6075 173.399 67.4933 173.666L52.2123 177.333C47.9893 178.347 44.0606 179.987 40.504 182.132C37.3222 175.883 33.5811 168.495 31.2548 163.812ZM79.9179 95.9446C123.258 94.5244 167.094 72.3073 179.923 65.2866L200.082 97.54V105.503C200.082 138.632 173.13 165.585 140 165.585C106.87 165.585 79.9179 138.632 79.9179 105.503V95.9446ZM102.916 165.969V163.318C113.62 170.208 126.351 174.209 140 174.209C153.649 174.209 166.38 170.208 177.084 163.318V165.969C177.084 172.873 180.92 179.08 187.099 182.17L187.236 182.238C188.469 182.854 189.77 183.335 191.103 183.668L204.046 186.904C199.593 197.756 192.404 207.45 183.174 214.842C170.808 224.745 155.878 229.979 140 229.979C124.122 229.979 109.193 224.745 96.8266 214.842C87.5963 207.45 80.4066 197.756 75.953 186.904L88.8957 183.668C90.229 183.335 91.5307 182.854 92.7611 182.239L92.9037 182.168C99.0798 179.08 102.916 172.873 102.916 165.969ZM250.678 261.889C250.678 267.12 246.422 271.376 241.191 271.376H38.8091C33.5782 271.376 29.3224 267.12 29.3224 261.889V217.306C29.3224 202.227 39.5634 189.238 54.2257 185.719L65.4292 183.03C69.9512 198.11 79.075 211.674 91.4353 221.573C105.347 232.714 122.141 238.604 140 238.604C157.859 238.604 174.653 232.714 188.564 221.573C200.924 211.674 210.048 198.109 214.57 183.03L225.774 185.719C240.437 189.238 250.678 202.227 250.678 217.306V261.889Z" fill="#E3E3E3"/>
</g>
<defs>
<clipPath id="clip0_14_26">
<rect width="280" height="280" fill="white"/>
</clipPath>
</defs>
</svg>
